<?xml version="1.0" encoding="UTF-8" standalone="no"?>
<!DOCTYPE svg PUBLIC "-//W3C//DTD SVG 1.1//EN"
 "http://www.w3.org/Graphics/SVG/1.1/DTD/svg11.dtd">
<!-- Generated by graphviz version 2.47.0 (20210316.0004)
 -->
<!-- Title: dependencies Pages: 1 -->
<svg width="866pt" height="211pt"
 viewBox="0.00 0.00 866.00 211.00" xmlns="http://www.w3.org/2000/svg" xmlns:xlink="http://www.w3.org/1999/xlink">
<g id="graph0" class="graph" transform="scale(1 1) rotate(0) translate(4 207)">
<title>dependencies</title>
<polygon fill="white" stroke="transparent" points="-4,4 -4,-207 862,-207 862,4 -4,4"/>
<text text-anchor="start" x="408.01" y="-42.4" font-family="Times-12" font-weight="bold" font-size="14.00">Legend</text>
<polygon fill="#ffffb3" stroke="transparent" points="195,-10 195,-30 215,-30 215,-10 195,-10"/>
<text text-anchor="start" x="218.63" y="-15.4" font-family="Times-12" font-size="14.00"> &#160;Declarations</text>
<polygon fill="#8dd3c7" stroke="transparent" points="308,-10 308,-30 328,-30 328,-10 308,-10"/>
<text text-anchor="start" x="331.73" y="-15.4" font-family="Times-12" font-size="14.00"> &#160;Module</text>
<polygon fill="#80b1d3" stroke="transparent" points="394,-10 394,-30 414,-30 414,-10 394,-10"/>
<text text-anchor="start" x="417.78" y="-15.4" font-family="Times-12" font-size="14.00"> &#160;Bootstrap</text>
<polygon fill="#fdb462" stroke="transparent" points="491,-10 491,-30 511,-30 511,-10 491,-10"/>
<text text-anchor="start" x="514.67" y="-15.4" font-family="Times-12" font-size="14.00"> &#160;Providers</text>
<polygon fill="#fb8072" stroke="transparent" points="587,-10 587,-30 607,-30 607,-10 587,-10"/>
<text text-anchor="start" x="610.73" y="-15.4" font-family="Times-12" font-size="14.00"> &#160;Exports</text>
<g id="clust1" class="cluster">
<title>cluster_ListingModule</title>
<polygon fill="none" stroke="black" stroke-dasharray="1,5" points="8,-70 8,-195 850,-195 850,-70 8,-70"/>
</g>
<g id="clust2" class="cluster">
<title>cluster_ListingModule_declarations</title>
<polygon fill="none" stroke="black" points="168,-78 168,-130 842,-130 842,-78 168,-78"/>
</g>
<g id="clust7" class="cluster">
<title>cluster_ListingModule_imports</title>
<polygon fill="none" stroke="black" points="16,-78 16,-130 160,-130 160,-78 16,-78"/>
</g>
<!-- CreateEditListingComponent -->
<g id="node1" class="node">
<title>CreateEditListingComponent</title>
<polygon fill="#ffffb3" stroke="black" points="834.37,-122 653.63,-122 653.63,-86 834.37,-86 834.37,-122"/>
<text text-anchor="middle" x="744" y="-99.8" font-family="Times,serif" font-size="14.00">CreateEditListingComponent</text>
</g>
<!-- ListingModule -->
<g id="node5" class="node">
<title>ListingModule</title>
<polygon fill="#8dd3c7" stroke="black" points="448.72,-187 445.72,-191 424.72,-191 421.72,-187 349.28,-187 349.28,-151 448.72,-151 448.72,-187"/>
<text text-anchor="middle" x="399" y="-164.8" font-family="Times,serif" font-size="14.00">ListingModule</text>
</g>
<!-- CreateEditListingComponent&#45;&gt;ListingModule -->
<g id="edge1" class="edge">
<title>CreateEditListingComponent&#45;&gt;ListingModule</title>
<path fill="none" stroke="black" d="M744,-122.28C744,-143.32 744,-175 744,-175 744,-175 458.8,-175 458.8,-175"/>
<polygon fill="black" stroke="black" points="458.8,-171.5 448.8,-175 458.8,-178.5 458.8,-171.5"/>
</g>
<!-- ListingDetailComponent -->
<g id="node2" class="node">
<title>ListingDetailComponent</title>
<polygon fill="#ffffb3" stroke="black" points="635.71,-122 480.29,-122 480.29,-86 635.71,-86 635.71,-122"/>
<text text-anchor="middle" x="558" y="-99.8" font-family="Times,serif" font-size="14.00">ListingDetailComponent</text>
</g>
<!-- ListingDetailComponent&#45;&gt;ListingModule -->
<g id="edge2" class="edge">
<title>ListingDetailComponent&#45;&gt;ListingModule</title>
<path fill="none" stroke="black" d="M558,-122.02C558,-139.37 558,-163 558,-163 558,-163 458.87,-163 458.87,-163"/>
<polygon fill="black" stroke="black" points="458.87,-159.5 448.87,-163 458.87,-166.5 458.87,-159.5"/>
</g>
<!-- ListingsComponent -->
<g id="node3" class="node">
<title>ListingsComponent</title>
<polygon fill="#ffffb3" stroke="black" points="462.45,-122 335.55,-122 335.55,-86 462.45,-86 462.45,-122"/>
<text text-anchor="middle" x="399" y="-99.8" font-family="Times,serif" font-size="14.00">ListingsComponent</text>
</g>
<!-- ListingsComponent&#45;&gt;ListingModule -->
<g id="edge3" class="edge">
<title>ListingsComponent&#45;&gt;ListingModule</title>
<path fill="none" stroke="black" d="M399,-122.11C399,-122.11 399,-140.99 399,-140.99"/>
<polygon fill="black" stroke="black" points="395.5,-140.99 399,-150.99 402.5,-140.99 395.5,-140.99"/>
</g>
<!-- MylistingsComponent -->
<g id="node4" class="node">
<title>MylistingsComponent</title>
<polygon fill="#ffffb3" stroke="black" points="317.73,-122 176.27,-122 176.27,-86 317.73,-86 317.73,-122"/>
<text text-anchor="middle" x="247" y="-99.8" font-family="Times,serif" font-size="14.00">MylistingsComponent</text>
</g>
<!-- MylistingsComponent&#45;&gt;ListingModule -->
<g id="edge4" class="edge">
<title>MylistingsComponent&#45;&gt;ListingModule</title>
<path fill="none" stroke="black" d="M247,-122.02C247,-139.37 247,-163 247,-163 247,-163 339.23,-163 339.23,-163"/>
<polygon fill="black" stroke="black" points="339.23,-166.5 349.23,-163 339.23,-159.5 339.23,-166.5"/>
</g>
<!-- AppRoutingModule -->
<g id="node6" class="node">
<title>AppRoutingModule</title>
<polygon fill="#8dd3c7" stroke="black" points="152.27,-122 149.27,-126 128.27,-126 125.27,-122 23.73,-122 23.73,-86 152.27,-86 152.27,-122"/>
<text text-anchor="middle" x="88" y="-99.8" font-family="Times,serif" font-size="14.00">AppRoutingModule</text>
</g>
<!-- AppRoutingModule&#45;&gt;ListingModule -->
<g id="edge5" class="edge">
<title>AppRoutingModule&#45;&gt;ListingModule</title>
<path fill="none" stroke="black" d="M88,-122.28C88,-143.32 88,-175 88,-175 88,-175 339.38,-175 339.38,-175"/>
<polygon fill="black" stroke="black" points="339.38,-178.5 349.38,-175 339.38,-171.5 339.38,-178.5"/>
</g>
</g>
</svg>
