<?xml version="1.0" encoding="UTF-8" standalone="no"?>
<!DOCTYPE svg PUBLIC "-//W3C//DTD SVG 1.1//EN"
 "http://www.w3.org/Graphics/SVG/1.1/DTD/svg11.dtd">
<!-- Generated by graphviz version 2.47.0 (20210316.0004)
 -->
<!-- Title: dependencies Pages: 1 -->
<svg width="504pt" height="284pt"
 viewBox="0.00 0.00 504.00 284.00" xmlns="http://www.w3.org/2000/svg" xmlns:xlink="http://www.w3.org/1999/xlink">
<g id="graph0" class="graph" transform="scale(1 1) rotate(0) translate(4 280)">
<title>dependencies</title>
<polygon fill="white" stroke="transparent" points="-4,4 -4,-280 500,-280 500,4 -4,4"/>
<text text-anchor="start" x="227.01" y="-42.4" font-family="Times-12" font-weight="bold" font-size="14.00">Legend</text>
<polygon fill="#ffffb3" stroke="transparent" points="14,-10 14,-30 34,-30 34,-10 14,-10"/>
<text text-anchor="start" x="37.63" y="-15.4" font-family="Times-12" font-size="14.00"> &#160;Declarations</text>
<polygon fill="#8dd3c7" stroke="transparent" points="127,-10 127,-30 147,-30 147,-10 127,-10"/>
<text text-anchor="start" x="150.73" y="-15.4" font-family="Times-12" font-size="14.00"> &#160;Module</text>
<polygon fill="#80b1d3" stroke="transparent" points="213,-10 213,-30 233,-30 233,-10 213,-10"/>
<text text-anchor="start" x="236.78" y="-15.4" font-family="Times-12" font-size="14.00"> &#160;Bootstrap</text>
<polygon fill="#fdb462" stroke="transparent" points="310,-10 310,-30 330,-30 330,-10 310,-10"/>
<text text-anchor="start" x="333.67" y="-15.4" font-family="Times-12" font-size="14.00"> &#160;Providers</text>
<polygon fill="#fb8072" stroke="transparent" points="406,-10 406,-30 426,-30 426,-10 406,-10"/>
<text text-anchor="start" x="429.73" y="-15.4" font-family="Times-12" font-size="14.00"> &#160;Exports</text>
<g id="clust1" class="cluster">
<title>cluster_TaxonomyModule</title>
<polygon fill="none" stroke="black" stroke-dasharray="1,5" points="31,-70 31,-268 465,-268 465,-70 31,-70"/>
</g>
<g id="clust6" class="cluster">
<title>cluster_TaxonomyModule_exports</title>
<polygon fill="none" stroke="black" points="215,-208 215,-260 325,-260 325,-208 215,-208"/>
</g>
<g id="clust2" class="cluster">
<title>cluster_TaxonomyModule_declarations</title>
<polygon fill="none" stroke="black" points="191,-78 191,-130 457,-130 457,-78 191,-78"/>
</g>
<g id="clust5" class="cluster">
<title>cluster_TaxonomyModule_imports</title>
<polygon fill="none" stroke="black" points="39,-78 39,-130 183,-130 183,-78 39,-78"/>
</g>
<!-- OrderByPipe -->
<g id="node1" class="node">
<title>OrderByPipe</title>
<polygon fill="#ffffb3" stroke="black" points="448.87,-122 359.13,-122 359.13,-86 448.87,-86 448.87,-122"/>
<text text-anchor="middle" x="404" y="-99.8" font-family="Times,serif" font-size="14.00">OrderByPipe</text>
</g>
<!-- TaxonomyModule -->
<g id="node3" class="node">
<title>TaxonomyModule</title>
<polygon fill="#8dd3c7" stroke="black" points="330.21,-187 327.21,-191 306.21,-191 303.21,-187 209.79,-187 209.79,-151 330.21,-151 330.21,-187"/>
<text text-anchor="middle" x="270" y="-164.8" font-family="Times,serif" font-size="14.00">TaxonomyModule</text>
</g>
<!-- OrderByPipe&#45;&gt;TaxonomyModule -->
<g id="edge1" class="edge">
<title>OrderByPipe&#45;&gt;TaxonomyModule</title>
<path fill="none" stroke="black" d="M404,-122.11C404,-141.34 404,-169 404,-169 404,-169 340.34,-169 340.34,-169"/>
<polygon fill="black" stroke="black" points="340.34,-165.5 330.34,-169 340.34,-172.5 340.34,-165.5"/>
</g>
<!-- TaxonomyComponent -->
<g id="node2" class="node">
<title>TaxonomyComponent</title>
<polygon fill="#ffffb3" stroke="black" points="340.99,-122 199.01,-122 199.01,-86 340.99,-86 340.99,-122"/>
<text text-anchor="middle" x="270" y="-99.8" font-family="Times,serif" font-size="14.00">TaxonomyComponent</text>
</g>
<!-- TaxonomyComponent&#45;&gt;TaxonomyModule -->
<g id="edge2" class="edge">
<title>TaxonomyComponent&#45;&gt;TaxonomyModule</title>
<path fill="none" stroke="black" d="M270,-122.11C270,-122.11 270,-140.99 270,-140.99"/>
<polygon fill="black" stroke="black" points="266.5,-140.99 270,-150.99 273.5,-140.99 266.5,-140.99"/>
</g>
<!-- OrderByPipe  -->
<g id="node5" class="node">
<title>OrderByPipe </title>
<polygon fill="#fb8072" stroke="black" points="316.87,-252 223.13,-252 223.13,-216 316.87,-216 316.87,-252"/>
<text text-anchor="middle" x="270" y="-229.8" font-family="Times,serif" font-size="14.00">OrderByPipe </text>
</g>
<!-- TaxonomyModule&#45;&gt;OrderByPipe  -->
<g id="edge4" class="edge">
<title>TaxonomyModule&#45;&gt;OrderByPipe </title>
<path fill="none" stroke="black" stroke-dasharray="5,2" d="M270,-187.11C270,-187.11 270,-205.99 270,-205.99"/>
<polygon fill="black" stroke="black" points="266.5,-205.99 270,-215.99 273.5,-205.99 266.5,-205.99"/>
</g>
<!-- AppRoutingModule -->
<g id="node4" class="node">
<title>AppRoutingModule</title>
<polygon fill="#8dd3c7" stroke="black" points="175.27,-122 172.27,-126 151.27,-126 148.27,-122 46.73,-122 46.73,-86 175.27,-86 175.27,-122"/>
<text text-anchor="middle" x="111" y="-99.8" font-family="Times,serif" font-size="14.00">AppRoutingModule</text>
</g>
<!-- AppRoutingModule&#45;&gt;TaxonomyModule -->
<g id="edge3" class="edge">
<title>AppRoutingModule&#45;&gt;TaxonomyModule</title>
<path fill="none" stroke="black" d="M111,-122.11C111,-141.34 111,-169 111,-169 111,-169 199.89,-169 199.89,-169"/>
<polygon fill="black" stroke="black" points="199.89,-172.5 209.89,-169 199.89,-165.5 199.89,-172.5"/>
</g>
</g>
</svg>
